<svg xmlns="http://www.w3.org/2000/svg" xmlns:xlink="http://www.w3.org/1999/xlink" width="500" zoomAndPan="magnify" viewBox="0 0 375 374.999991" height="500" preserveAspectRatio="xMidYMid meet" version="1.0"><defs><g/><clipPath id="8254f076e4"><rect x="0" width="325" y="0" height="169"/></clipPath><clipPath id="d49eb10e9a"><path d="M 73 75.378906 L 302 75.378906 L 302 115.128906 L 73 115.128906 Z M 73 75.378906 " clip-rule="nonzero"/></clipPath><clipPath id="ab4b611168"><path d="M 5 258.476562 L 370 258.476562 L 370 322.226562 L 5 322.226562 Z M 5 258.476562 " clip-rule="nonzero"/></clipPath><clipPath id="4a62b4ac22"><rect x="0" width="52" y="0" height="19"/></clipPath></defs><g transform="matrix(1, 0, 0, 1, 25, 109)"><g clip-path="url(#8254f076e4)"><g fill="#ffffff" fill-opacity="1"><g transform="translate(2.323717, 139.489968)"><g><path d="M 79.515625 -133.921875 C 79.765625 -133.921875 79.890625 -133.796875 79.890625 -133.546875 C 79.890625 -133.160156 79.765625 -132.96875 79.515625 -132.96875 C 79.253906 -132.96875 79.0625 -132.96875 78.9375 -132.96875 C 78.8125 -132.96875 78.617188 -132.96875 78.359375 -132.96875 C 75.929688 -132.707031 73.851562 -131.617188 72.125 -129.703125 C 70.40625 -127.785156 69.546875 -125.550781 69.546875 -123 L 69.546875 -34.671875 C 69.546875 -27.773438 67.882812 -21.515625 64.5625 -15.890625 C 61.238281 -10.273438 56.765625 -5.804688 51.140625 -2.484375 C 45.523438 0.828125 39.269531 2.484375 32.375 2.484375 C 26.625 2.484375 21.195312 1.238281 16.09375 -1.25 C 10.988281 -3.738281 6.707031 -7.21875 3.25 -11.6875 C 3.125 -11.945312 3.0625 -12.140625 3.0625 -12.265625 L 8.625 -23.375 C 8.75 -23.5 8.941406 -23.5625 9.203125 -23.5625 C 9.453125 -23.5625 9.578125 -23.4375 9.578125 -23.1875 C 11.242188 -15.78125 14.179688 -9.804688 18.390625 -5.265625 C 22.609375 -0.734375 27.269531 1.53125 32.375 1.53125 C 36.84375 1.53125 40.894531 -0.09375 44.53125 -3.34375 C 48.175781 -6.601562 51.082031 -10.976562 53.25 -16.46875 C 55.425781 -21.96875 56.515625 -28.035156 56.515625 -34.671875 L 56.515625 -110.9375 C 56.515625 -116.039062 58.015625 -120.601562 61.015625 -124.625 C 64.023438 -128.65625 67.890625 -131.4375 72.609375 -132.96875 L 46.5625 -132.96875 C 46.175781 -132.96875 45.984375 -133.160156 45.984375 -133.546875 C 45.984375 -133.796875 46.175781 -133.921875 46.5625 -133.921875 Z M 79.515625 -133.921875 "/></g></g></g><g fill="#ffffff" fill-opacity="1"><g transform="translate(89.494429, 139.489968)"><g><path d="M 141.78125 -0.578125 C 142.03125 -0.578125 142.15625 -0.382812 142.15625 0 C 142.15625 0.382812 142.03125 0.578125 141.78125 0.578125 L 108.828125 0.578125 C 108.441406 0.578125 108.25 0.382812 108.25 0 C 108.25 -0.382812 108.441406 -0.578125 108.828125 -0.578125 C 110.742188 -0.578125 112.40625 -1.242188 113.8125 -2.578125 C 115.21875 -3.921875 115.921875 -5.613281 115.921875 -7.65625 C 115.785156 -8.9375 115.460938 -10.085938 114.953125 -11.109375 L 67.828125 -118.78125 L 36.78125 -43.296875 L 83.71875 -43.296875 C 84.101562 -43.296875 84.296875 -43.101562 84.296875 -42.71875 C 84.296875 -42.34375 84.101562 -42.15625 83.71875 -42.15625 L 36.21875 -42.15625 L 25.09375 -15.140625 C 25.09375 -15.003906 25.09375 -14.9375 25.09375 -14.9375 C 24.96875 -14.8125 24.96875 -14.8125 25.09375 -14.9375 L 20.125 -3.25 C 20.125 -3 19.992188 -2.875 19.734375 -2.875 C 19.609375 -2.875 19.546875 -2.875 19.546875 -2.875 C 19.160156 -3 19.03125 -3.253906 19.15625 -3.640625 L 21.453125 -9 C 18.140625 -4.789062 13.925781 -1.984375 8.8125 -0.578125 L 34.484375 -0.578125 C 34.867188 -0.578125 35.0625 -0.382812 35.0625 0 C 35.0625 0.382812 34.867188 0.578125 34.484375 0.578125 L 1.71875 0.578125 C 1.59375 0.578125 1.46875 0.515625 1.34375 0.390625 C 1.21875 0.253906 1.15625 0.125 1.15625 0 C 1.15625 -0.125 1.21875 -0.253906 1.34375 -0.390625 C 1.46875 -0.515625 1.59375 -0.578125 1.71875 -0.578125 C 6.570312 -0.578125 11.039062 -1.914062 15.125 -4.59375 C 19.21875 -7.28125 22.222656 -10.859375 24.140625 -15.328125 L 73.578125 -135.078125 L 73.765625 -135.640625 C 73.765625 -135.773438 73.828125 -135.84375 73.953125 -135.84375 C 74.078125 -135.96875 74.269531 -136.03125 74.53125 -136.03125 C 74.53125 -135.90625 74.53125 -135.84375 74.53125 -135.84375 C 74.65625 -135.84375 74.71875 -135.773438 74.71875 -135.640625 L 123.96875 -23.1875 C 124.988281 -21.007812 125.5 -18.707031 125.5 -16.28125 C 125.5 -12.707031 124.503906 -9.484375 122.515625 -6.609375 C 120.535156 -3.734375 117.890625 -1.722656 114.578125 -0.578125 Z M 141.78125 -0.578125 "/></g></g></g><g fill="#ffffff" fill-opacity="1"><g transform="translate(233.373973, 139.489968)"><g><path d="M 86.59375 -12.078125 C 86.726562 -11.941406 86.859375 -11.8125 86.984375 -11.6875 C 86.984375 -11.5625 86.984375 -11.429688 86.984375 -11.296875 L 81.421875 0.1875 C 81.296875 0.320312 81.234375 0.390625 81.234375 0.390625 C 81.109375 0.515625 80.984375 0.578125 80.859375 0.578125 L 9.96875 0.578125 C 9.707031 0.578125 9.476562 0.578125 9.28125 0.578125 C 9.09375 0.578125 8.875 0.578125 8.625 0.578125 C 8.238281 0.578125 8.046875 0.382812 8.046875 0 C 8.046875 -0.382812 8.238281 -0.578125 8.625 -0.578125 L 9.765625 -0.578125 C 12.191406 -0.828125 14.234375 -1.878906 15.890625 -3.734375 C 17.554688 -5.585938 18.390625 -7.789062 18.390625 -10.34375 L 18.390625 -110.9375 C 18.390625 -116.039062 19.890625 -120.601562 22.890625 -124.625 C 25.890625 -128.65625 29.816406 -131.4375 34.671875 -132.96875 L 8.625 -132.96875 C 8.238281 -132.96875 8.046875 -133.160156 8.046875 -133.546875 C 8.046875 -133.796875 8.238281 -133.921875 8.625 -133.921875 L 41.390625 -133.921875 C 41.640625 -133.921875 41.765625 -133.921875 41.765625 -133.921875 C 41.890625 -133.796875 41.953125 -133.671875 41.953125 -133.546875 C 41.953125 -133.410156 41.890625 -133.28125 41.765625 -133.15625 C 41.765625 -133.03125 41.640625 -132.96875 41.390625 -132.96875 C 41.253906 -132.96875 41.09375 -132.96875 40.90625 -132.96875 C 40.71875 -132.96875 40.554688 -132.96875 40.421875 -132.96875 C 37.867188 -132.707031 35.757812 -131.617188 34.09375 -129.703125 C 32.4375 -127.785156 31.609375 -125.550781 31.609375 -123 L 31.609375 -22.421875 C 31.609375 -17.429688 30.109375 -12.925781 27.109375 -8.90625 C 24.109375 -4.882812 20.242188 -2.109375 15.515625 -0.578125 L 36.21875 -0.578125 C 44.382812 -0.578125 52.078125 -1.085938 59.296875 -2.109375 C 66.515625 -3.128906 72.519531 -4.46875 77.3125 -6.125 C 82.101562 -7.789062 85.007812 -9.644531 86.03125 -11.6875 C 86.03125 -11.8125 86.09375 -11.941406 86.21875 -12.078125 C 86.34375 -12.078125 86.46875 -12.078125 86.59375 -12.078125 Z M 86.59375 -12.078125 "/></g></g></g></g></g><g clip-path="url(#d49eb10e9a)"><path fill="#ffffff" d="M 90.875 114.96875 C 82.265625 113.519531 76.230469 108.691406 73.804688 101.316406 C 72.804688 98.269531 72.757812 93.902344 73.699219 91.519531 C 74.046875 90.605469 74.535156 89.777344 75.167969 89.03125 C 75.804688 88.289062 76.542969 87.671875 77.390625 87.183594 C 78.96875 86.363281 81.851562 86.386719 83.617188 87.234375 C 86.964844 88.847656 89.027344 92.601562 88.199219 95.5625 C 87.722656 97.257812 86.855469 98.019531 85.644531 97.792969 C 84.394531 97.558594 83.226562 96.382812 83.335938 95.460938 C 83.421875 94.71875 84.019531 94.597656 85.433594 95.046875 C 86.074219 95.25 86.085938 95.230469 85.953125 93.859375 C 85.65625 90.773438 82.472656 88.46875 79.527344 89.210938 C 75.457031 90.234375 74.425781 96.898438 77.402344 102.925781 C 79.675781 107.53125 83.941406 110.726562 89.660156 112.117188 C 96.769531 113.847656 110.253906 112.496094 120.035156 109.074219 C 122.6875 108.148438 129.484375 105.25 129.339844 105.105469 C 128.433594 105.324219 127.550781 105.613281 126.6875 105.96875 C 119.308594 108.710938 110.675781 110.015625 106.152344 109.066406 C 103.640625 108.464844 101.394531 107.339844 99.414062 105.683594 C 95.472656 101.992188 95.832031 97.347656 100.164062 96.089844 C 102.871094 95.304688 105.613281 96.082031 106.761719 97.96875 C 107.421875 99.046875 107.480469 101.082031 106.882812 101.9375 C 106.183594 102.9375 105.761719 102.679688 105.578125 101.144531 C 105.363281 99.320312 104.824219 98.546875 103.496094 98.148438 C 101.429688 97.53125 99.113281 98.664062 99.113281 100.296875 C 99.113281 101.949219 101.191406 104.386719 103.679688 105.644531 C 105.835938 106.765625 108.132812 107.28125 110.5625 107.183594 C 116.941406 107.183594 124.988281 104.996094 137.886719 99.761719 C 140.8125 98.574219 144.300781 97.195312 145.632812 96.699219 C 148.042969 95.804688 148.0625 95.789062 148.757812 94.324219 C 150.273438 91.125 154.234375 88.335938 159.046875 87.082031 C 161.9375 86.328125 169.183594 86.390625 172.082031 87.191406 C 178.632812 89.003906 182.882812 91.957031 186.902344 97.492188 L 187.453125 98.253906 L 188.246094 97.054688 C 190.339844 93.875 194.109375 90.726562 197.996094 88.90625 C 201.984375 87.039062 204.238281 86.578125 209.417969 86.578125 C 213.296875 86.578125 214.230469 86.667969 216.109375 87.203125 C 220.945312 88.589844 224.300781 90.96875 225.953125 94.191406 C 226.746094 95.738281 226.789062 95.777344 229.082031 96.65625 C 230.355469 97.148438 233.367188 98.355469 235.769531 99.339844 C 249.964844 105.152344 258.394531 107.402344 264.933594 107.121094 C 268.417969 106.972656 270.148438 106.4375 272.507812 104.789062 C 275.160156 102.9375 276.457031 100.230469 275.265625 99.039062 C 274.722656 98.589844 274.105469 98.285156 273.417969 98.128906 C 272.726562 97.972656 272.039062 97.984375 271.355469 98.15625 C 269.910156 98.589844 269.214844 99.582031 269.214844 101.214844 C 269.214844 102.664062 268.832031 102.933594 268.027344 102.042969 C 267.714844 101.703125 267.574219 101.050781 267.574219 99.964844 C 267.574219 98.5 267.652344 98.308594 268.609375 97.347656 C 270.386719 95.574219 273.488281 95.257812 275.878906 96.613281 C 277.527344 97.550781 278.078125 98.476562 278.066406 100.300781 C 278.042969 104.03125 274.320312 107.617188 269.089844 108.953125 C 264.769531 110.054688 256.355469 108.921875 248.804688 106.222656 C 247.917969 105.867188 247.011719 105.585938 246.078125 105.378906 C 245.867188 105.589844 252.109375 108.144531 255.835938 109.371094 C 266.542969 112.90625 279.441406 113.914062 286.40625 111.761719 C 294.191406 109.367188 299.035156 103.277344 299.070312 95.855469 C 299.089844 91.660156 297.1875 89.101562 294.058594 89.101562 C 292.492188 89.101562 291.441406 89.625 290.164062 91.042969 C 288.515625 92.863281 288.074219 95.484375 289.488281 95.046875 C 291.074219 94.554688 291.269531 94.566406 291.460938 95.160156 C 291.863281 96.429688 289.707031 98.171875 288.199219 97.792969 C 287.269531 97.558594 286.425781 95.792969 286.417969 94.054688 C 286.410156 92.457031 287.703125 89.800781 289.074219 88.59375 C 291.953125 86.066406 296.066406 85.84375 298.753906 88.070312 C 300.976562 89.914062 302.265625 94.316406 301.691406 98.101562 C 300.4375 106.378906 295.039062 112.097656 286.222656 114.484375 C 283.703125 115.164062 283.183594 115.207031 277.402344 115.214844 C 274.316406 115.292969 271.246094 115.144531 268.1875 114.761719 C 257.664062 113.171875 249.714844 110.3125 239.730469 104.519531 C 234.148438 101.28125 228.917969 98.582031 227.640625 98.289062 C 227.019531 98.144531 226.890625 98.203125 226.890625 98.640625 C 226.808594 99.277344 226.65625 99.898438 226.433594 100.503906 C 226.164062 101.183594 225.804688 101.8125 225.355469 102.386719 C 224.902344 102.964844 224.378906 103.460938 223.78125 103.886719 C 223.183594 104.308594 222.539062 104.640625 221.847656 104.875 C 221.152344 105.109375 220.441406 105.242188 219.710938 105.269531 C 217.582031 105.269531 215.695312 103.535156 215.695312 101.582031 L 215.695312 100.839844 L 214.644531 101.789062 C 214.238281 102.175781 213.777344 102.472656 213.253906 102.679688 C 212.734375 102.886719 212.195312 102.988281 211.632812 102.984375 C 211.074219 102.980469 210.535156 102.875 210.015625 102.664062 C 209.5 102.453125 209.039062 102.152344 208.636719 101.761719 C 207.230469 100.445312 207.167969 98.757812 208.476562 97.449219 C 209.40625 96.523438 209.808594 96.753906 209.90625 98.257812 C 210.136719 101.757812 214.605469 100.585938 214.601562 97.027344 C 214.601562 95.023438 212.746094 93.429688 209.414062 92.570312 C 206.820312 91.898438 202.320312 92.136719 199.632812 93.082031 C 195.519531 94.527344 188.902344 98.359375 188.539062 99.5 C 188.558594 100.390625 188.734375 101.25 189.066406 102.078125 C 189.835938 104.210938 189.949219 106.375 189.398438 108.578125 C 188.964844 110.226562 188.511719 110.730469 187.472656 110.726562 C 186.195312 110.71875 185.972656 110.460938 185.351562 108.273438 C 184.6875 105.929688 184.785156 104.582031 185.820312 101.714844 C 186.671875 99.347656 186.589844 99.1875 183.453125 97.203125 C 180.433594 95.273438 177.214844 93.769531 173.796875 92.695312 C 170.929688 91.910156 166.4375 92.035156 164.019531 92.964844 C 160.179688 94.445312 159.027344 97.011719 161.128906 99.40625 C 162.078125 100.488281 163.25 100.667969 164.332031 99.910156 C 164.871094 99.535156 164.945312 99.304688 164.804688 98.441406 C 164.472656 96.367188 166.476562 96.460938 167.050781 98.542969 C 167.15625 98.824219 167.210938 99.109375 167.222656 99.410156 C 167.234375 99.707031 167.195312 99.996094 167.113281 100.28125 C 167.027344 100.570312 166.898438 100.832031 166.730469 101.078125 C 166.558594 101.320312 166.351562 101.53125 166.113281 101.707031 C 165.707031 102.097656 165.246094 102.398438 164.726562 102.617188 C 164.207031 102.832031 163.667969 102.949219 163.105469 102.960938 C 162.542969 102.972656 161.996094 102.886719 161.46875 102.695312 C 160.941406 102.503906 160.464844 102.222656 160.039062 101.851562 L 159.242188 101.179688 L 158.9375 102.378906 C 158.058594 105.890625 153.058594 106.265625 149.984375 103.046875 C 148.949219 101.964844 148 99.992188 147.992188 98.898438 C 147.988281 98.1875 147.917969 98.132812 147.234375 98.292969 C 145.9375 98.59375 140.976562 101.097656 136.683594 103.613281 C 124.546875 110.730469 115.339844 113.917969 103.523438 115.097656 C 99.769531 115.46875 93.476562 115.40625 90.875 114.96875 Z M 188.578125 106.96875 C 188.683594 105.820312 188.535156 104.707031 188.140625 103.628906 C 187.808594 102.542969 187.441406 101.761719 187.320312 101.894531 C 187.023438 102.4375 186.792969 103.003906 186.625 103.59375 C 186.035156 105.414062 186.152344 108.136719 186.867188 109.230469 L 187.367188 109.992188 L 187.890625 109.160156 C 188.253906 108.472656 188.484375 107.742188 188.578125 106.96875 Z M 156.382812 102.472656 C 156.648438 102.058594 156.761719 101.605469 156.722656 101.113281 C 156.722656 99.128906 154.273438 97.355469 151.535156 97.363281 C 151.082031 97.347656 150.644531 97.425781 150.222656 97.589844 C 149.78125 97.871094 150.011719 98.984375 150.808594 100.441406 C 151.933594 102.492188 154.957031 103.59375 156.382812 102.472656 Z M 222.085938 102.3125 C 222.730469 101.917969 223.273438 101.414062 223.714844 100.796875 C 224.15625 100.183594 224.460938 99.507812 224.628906 98.769531 C 224.769531 97.726562 224.730469 97.644531 224.003906 97.460938 C 223.039062 97.21875 220.617188 97.707031 219.660156 98.332031 C 218.882812 98.84375 217.882812 100.566406 217.882812 101.398438 C 217.882812 101.925781 218.519531 102.625 219.246094 102.898438 C 219.828125 103.113281 221.15625 102.839844 222.085938 102.308594 Z M 220.375 95.871094 C 221.277344 95.617188 222.199219 95.476562 223.136719 95.445312 L 224.464844 95.445312 L 223.972656 94.585938 C 222.734375 92.753906 221.132812 91.328125 219.171875 90.308594 C 216.425781 88.957031 214.578125 88.5625 210.332031 88.417969 C 204.25 88.214844 200.257812 89.265625 195.59375 92.304688 C 194.800781 92.792969 194.039062 93.324219 193.308594 93.898438 C 194.222656 93.546875 195.109375 93.140625 195.972656 92.679688 C 199.5 90.925781 202.261719 90.222656 205.734375 90.199219 C 209.839844 90.164062 213.136719 91.296875 215.203125 93.445312 C 215.730469 93.910156 216.132812 94.464844 216.410156 95.113281 C 216.691406 95.757812 216.816406 96.433594 216.789062 97.136719 L 216.789062 98.242188 L 217.867188 97.269531 C 218.609375 96.640625 219.445312 96.175781 220.375 95.875 Z M 158.902344 94.226562 C 159.792969 92.789062 162.300781 91.242188 164.707031 90.648438 C 169.046875 89.578125 174.058594 90.304688 178.976562 92.71875 C 181.085938 93.753906 181.128906 93.761719 180.203125 92.984375 C 178.902344 91.882812 174.183594 89.574219 172.015625 88.976562 C 170.605469 88.585938 169.226562 88.488281 165.324219 88.496094 C 160.730469 88.507812 160.265625 88.554688 158.203125 89.242188 C 154.695312 90.414062 152.011719 92.386719 150.835938 94.660156 L 150.429688 95.445312 L 151.578125 95.445312 C 153.28125 95.445312 155.734375 96.222656 156.769531 97.085938 L 157.679688 97.847656 L 157.972656 96.554688 C 158.175781 95.734375 158.484375 94.960938 158.902344 94.226562 Z M 186.925781 94.953125 C 186.761719 94.394531 186.65625 93.824219 186.601562 93.246094 C 186.378906 91.582031 185.738281 90.101562 184.671875 88.804688 C 184.039062 88.046875 183.800781 86.984375 184.265625 86.984375 C 184.632812 87.121094 184.96875 87.320312 185.261719 87.582031 L 186.023438 88.183594 L 185.828125 87.378906 C 185.238281 84.953125 182.671875 81.929688 180.628906 81.253906 C 178.933594 80.695312 178.128906 81.625 178.878906 83.269531 C 179.296875 84.191406 179.722656 84.304688 181.054688 83.832031 C 181.675781 83.613281 182.230469 83.4375 182.289062 83.4375 C 182.386719 83.738281 182.421875 84.050781 182.390625 84.367188 C 182.402344 84.695312 182.335938 85.003906 182.183594 85.296875 C 182.035156 85.589844 181.824219 85.824219 181.550781 86.003906 C 179.996094 87.3125 177.933594 86.734375 176.957031 84.722656 C 175.929688 82.59375 176.296875 80.839844 178.023438 79.664062 C 179.324219 78.78125 181.070312 78.945312 182.972656 80.128906 C 183.425781 80.449219 183.910156 80.710938 184.421875 80.921875 C 184.449219 80.878906 184.929688 79.796875 185.488281 78.519531 C 186.824219 75.460938 186.875 75.378906 187.433594 75.378906 C 187.773438 75.378906 188.261719 76.152344 189.140625 78.109375 C 189.8125 79.609375 190.414062 80.890625 190.472656 80.953125 C 190.53125 81.015625 190.796875 80.875 191.058594 80.644531 C 192.183594 79.738281 193.464844 79.214844 194.902344 79.066406 C 198.269531 79.066406 199.570312 83.238281 197.003906 85.808594 C 195.738281 87.074219 194.433594 87.066406 193.148438 85.78125 C 192.25 84.882812 191.957031 83.90625 192.476562 83.582031 C 192.960938 83.554688 193.417969 83.652344 193.851562 83.871094 C 194.902344 84.292969 195.003906 84.292969 195.507812 83.835938 C 195.910156 83.410156 196.089844 82.902344 196.042969 82.320312 C 196.042969 80.988281 195.402344 80.753906 193.757812 81.480469 C 191.675781 82.402344 189.628906 84.875 188.921875 87.324219 L 188.703125 88.089844 L 189.503906 87.519531 C 190.945312 86.496094 191.316406 87.390625 190.074219 88.902344 C 189.019531 90.066406 188.417969 91.425781 188.265625 92.988281 C 188.023438 94.804688 187.402344 95.71875 186.929688 94.953125 Z M 186.925781 94.953125 " fill-opacity="1" fill-rule="nonzero"/></g><g clip-path="url(#ab4b611168)"><path fill="#ffffff" d="M 341.261719 259.222656 C 354.964844 261.527344 364.574219 269.210938 368.429688 280.945312 C 370.023438 285.796875 370.097656 292.746094 368.597656 296.539062 C 368.046875 297.992188 367.265625 299.3125 366.257812 300.496094 C 365.25 301.679688 364.070312 302.664062 362.722656 303.4375 C 360.210938 304.746094 355.621094 304.707031 352.816406 303.355469 C 347.488281 300.792969 344.203125 294.816406 345.523438 290.105469 C 346.277344 287.402344 347.664062 286.191406 349.585938 286.554688 C 351.578125 286.925781 353.433594 288.800781 353.265625 290.265625 C 353.125 291.449219 352.171875 291.636719 349.921875 290.921875 C 348.902344 290.601562 348.886719 290.636719 349.097656 292.816406 C 349.570312 297.726562 354.636719 301.394531 359.324219 300.214844 C 365.800781 298.585938 367.445312 287.976562 362.707031 278.386719 C 359.085938 271.054688 352.300781 265.972656 343.195312 263.757812 C 331.878906 261.007812 310.425781 263.15625 294.855469 268.601562 C 290.632812 270.074219 279.820312 274.6875 280.046875 274.917969 C 281.492188 274.570312 282.898438 274.113281 284.269531 273.542969 C 296.011719 269.175781 309.75 267.105469 316.949219 268.617188 C 320.945312 269.570312 324.519531 271.363281 327.671875 274 C 333.949219 279.871094 333.375 287.261719 326.484375 289.261719 C 322.171875 290.515625 317.808594 289.277344 315.976562 286.277344 C 314.929688 284.554688 314.832031 281.324219 315.789062 279.960938 C 316.902344 278.367188 317.574219 278.773438 317.863281 281.21875 C 318.207031 284.121094 319.066406 285.355469 321.175781 285.988281 C 324.464844 286.972656 328.148438 285.167969 328.148438 282.570312 C 328.148438 279.9375 324.84375 276.0625 320.886719 274.0625 C 317.453125 272.273438 313.800781 271.457031 309.929688 271.605469 C 299.777344 271.613281 286.972656 275.089844 266.449219 283.421875 C 261.789062 285.3125 256.238281 287.503906 254.117188 288.292969 C 250.28125 289.714844 250.25 289.742188 249.148438 292.070312 C 246.734375 297.167969 240.429688 301.605469 232.773438 303.601562 C 228.171875 304.796875 216.636719 304.699219 212.027344 303.425781 C 201.601562 300.539062 194.839844 295.839844 188.441406 287.035156 L 187.5625 285.824219 L 186.300781 287.730469 C 182.964844 292.789062 176.972656 297.800781 170.785156 300.695312 C 164.4375 303.671875 160.851562 304.402344 152.601562 304.402344 C 146.433594 304.402344 144.949219 304.261719 141.957031 303.40625 C 134.261719 301.203125 128.921875 297.410156 126.292969 292.285156 C 125.03125 289.820312 124.957031 289.765625 121.3125 288.363281 C 119.28125 287.582031 114.492188 285.660156 110.667969 284.09375 C 88.078125 274.839844 74.660156 271.261719 64.253906 271.707031 C 58.710938 271.945312 55.957031 272.792969 52.203125 275.417969 C 47.980469 278.367188 45.914062 282.675781 47.8125 284.570312 C 48.679688 285.289062 49.660156 285.769531 50.753906 286.019531 C 51.851562 286.265625 52.945312 286.253906 54.035156 285.976562 C 56.335938 285.289062 57.441406 283.707031 57.441406 281.109375 C 57.441406 278.800781 58.050781 278.375 59.332031 279.789062 C 59.824219 280.332031 60.050781 281.367188 60.050781 283.097656 C 60.050781 285.429688 59.929688 285.734375 58.40625 287.261719 C 55.578125 290.089844 50.644531 290.585938 46.835938 288.429688 C 44.210938 286.941406 43.332031 285.464844 43.351562 282.558594 C 43.390625 276.628906 49.316406 270.921875 57.644531 268.796875 C 64.515625 267.042969 77.90625 268.84375 89.925781 273.140625 C 91.332031 273.707031 92.777344 274.15625 94.261719 274.484375 C 94.597656 274.148438 84.664062 270.082031 78.734375 268.125 C 61.691406 262.503906 41.167969 260.898438 30.082031 264.324219 C 17.695312 268.132812 9.980469 277.824219 9.929688 289.636719 C 9.898438 296.3125 12.921875 300.382812 17.90625 300.382812 C 20.398438 300.382812 22.070312 299.554688 24.105469 297.296875 C 26.722656 294.398438 27.425781 290.230469 25.179688 290.925781 C 22.65625 291.710938 22.339844 291.691406 22.039062 290.746094 C 21.398438 288.722656 24.828125 285.949219 27.230469 286.554688 C 28.710938 286.925781 30.050781 289.738281 30.0625 292.503906 C 30.074219 295.050781 28.019531 299.273438 25.835938 301.191406 C 21.25 305.21875 14.710938 305.574219 10.429688 302.027344 C 6.894531 299.09375 4.839844 292.089844 5.753906 286.0625 C 7.75 272.894531 16.347656 263.789062 30.378906 259.992188 C 34.386719 258.90625 35.214844 258.839844 44.414062 258.828125 C 49.320312 258.699219 54.207031 258.941406 59.078125 259.550781 C 75.828125 262.078125 88.476562 266.628906 104.367188 275.851562 C 113.246094 281.003906 121.574219 285.296875 123.605469 285.765625 C 124.59375 285.996094 124.800781 285.898438 124.800781 285.207031 C 124.933594 284.191406 125.171875 283.203125 125.527344 282.242188 C 125.953125 281.160156 126.527344 280.160156 127.246094 279.242188 C 127.964844 278.324219 128.796875 277.53125 129.746094 276.855469 C 130.699219 276.183594 131.722656 275.660156 132.828125 275.285156 C 133.929688 274.910156 135.0625 274.699219 136.226562 274.652344 C 139.609375 274.652344 142.617188 277.414062 142.617188 280.527344 L 142.617188 281.703125 L 144.289062 280.191406 C 144.609375 279.890625 144.953125 279.617188 145.328125 279.378906 C 145.699219 279.140625 146.089844 278.941406 146.5 278.777344 C 146.910156 278.617188 147.332031 278.492188 147.765625 278.410156 C 148.199219 278.332031 148.636719 278.289062 149.078125 278.292969 C 149.519531 278.292969 149.957031 278.339844 150.390625 278.425781 C 150.824219 278.511719 151.242188 278.636719 151.652344 278.804688 C 152.0625 278.96875 152.449219 279.175781 152.820312 279.417969 C 153.191406 279.65625 153.53125 279.933594 153.851562 280.238281 C 156.089844 282.332031 156.1875 285.019531 154.101562 287.105469 C 152.628906 288.578125 151.984375 288.210938 151.828125 285.8125 C 151.464844 280.242188 144.351562 282.109375 144.355469 287.773438 C 144.355469 290.960938 147.3125 293.5 152.609375 294.867188 C 156.738281 295.933594 163.898438 295.558594 168.179688 294.054688 C 174.722656 291.75 185.257812 285.652344 185.832031 283.835938 C 185.800781 282.417969 185.519531 281.050781 184.996094 279.734375 C 184.394531 278.074219 184.050781 276.363281 183.960938 274.601562 C 183.867188 272.839844 184.035156 271.105469 184.464844 269.390625 C 185.15625 266.765625 185.878906 265.964844 187.535156 265.972656 C 189.566406 265.980469 189.921875 266.390625 190.90625 269.875 C 191.960938 273.605469 191.8125 275.75 190.164062 280.3125 C 188.804688 284.078125 188.9375 284.335938 193.925781 287.488281 C 198.734375 290.5625 203.855469 292.957031 209.296875 294.667969 C 213.859375 295.917969 221.003906 295.71875 224.855469 294.234375 C 230.964844 291.882812 232.800781 287.796875 229.453125 283.988281 C 227.949219 282.269531 226.082031 281.976562 224.355469 283.183594 C 223.5 283.785156 223.386719 284.144531 223.605469 285.523438 C 224.132812 288.820312 220.949219 288.671875 220.03125 285.359375 C 219.867188 284.914062 219.773438 284.457031 219.757812 283.984375 C 219.742188 283.507812 219.800781 283.046875 219.933594 282.589844 C 220.070312 282.136719 220.273438 281.714844 220.546875 281.328125 C 220.816406 280.941406 221.144531 280.605469 221.527344 280.324219 C 221.84375 280.015625 222.191406 279.742188 222.5625 279.5 C 222.933594 279.253906 223.324219 279.046875 223.730469 278.878906 C 224.140625 278.707031 224.5625 278.574219 224.996094 278.484375 C 225.429688 278.390625 225.867188 278.339844 226.3125 278.328125 C 226.753906 278.320312 227.195312 278.351562 227.632812 278.421875 C 228.070312 278.492188 228.5 278.605469 228.914062 278.753906 C 229.332031 278.90625 229.734375 279.09375 230.113281 279.320312 C 230.496094 279.542969 230.855469 279.800781 231.1875 280.09375 L 232.460938 281.164062 L 232.941406 279.257812 C 234.339844 273.664062 242.300781 273.070312 247.195312 278.191406 C 248.839844 279.914062 250.347656 283.058594 250.363281 284.796875 C 250.371094 285.925781 250.480469 286.011719 251.570312 285.757812 C 253.632812 285.277344 261.527344 281.296875 268.359375 277.292969 C 287.675781 265.964844 302.324219 260.890625 321.136719 259.015625 C 327.109375 258.421875 337.121094 258.523438 341.261719 259.21875 Z M 185.773438 271.953125 C 185.605469 273.777344 185.839844 275.546875 186.472656 277.265625 C 186.996094 278.996094 187.582031 280.238281 187.777344 280.027344 C 188.242188 279.164062 188.613281 278.265625 188.878906 277.324219 C 189.820312 274.425781 189.636719 270.089844 188.496094 268.351562 L 187.703125 267.140625 L 186.867188 268.460938 C 186.289062 269.558594 185.921875 270.722656 185.773438 271.953125 Z M 237.011719 279.105469 C 236.589844 279.765625 236.40625 280.488281 236.46875 281.269531 C 236.46875 284.429688 240.367188 287.25 244.722656 287.238281 C 245.445312 287.261719 246.140625 287.140625 246.8125 286.875 C 247.515625 286.433594 247.148438 284.65625 245.878906 282.339844 C 244.089844 279.074219 239.28125 277.320312 237.007812 279.109375 Z M 132.445312 279.359375 C 131.417969 279.988281 130.554688 280.792969 129.851562 281.769531 C 129.148438 282.75 128.667969 283.828125 128.402344 285 C 128.179688 286.660156 128.238281 286.789062 129.394531 287.082031 C 130.925781 287.46875 134.78125 286.691406 136.308594 285.695312 C 137.542969 284.886719 139.136719 282.136719 139.136719 280.820312 C 139.136719 279.980469 138.121094 278.863281 136.960938 278.429688 C 136.039062 278.085938 133.921875 278.519531 132.445312 279.367188 Z M 135.171875 289.613281 C 133.734375 290.015625 132.269531 290.238281 130.777344 290.289062 L 128.65625 290.289062 L 129.441406 291.65625 C 131.414062 294.570312 133.960938 296.839844 137.082031 298.464844 C 141.449219 300.617188 144.394531 301.246094 151.152344 301.472656 C 160.828125 301.800781 167.183594 300.125 174.605469 295.285156 C 175.867188 294.511719 177.078125 293.667969 178.242188 292.75 C 176.789062 293.308594 175.375 293.957031 174.003906 294.695312 C 168.394531 297.480469 163.996094 298.597656 158.472656 298.640625 C 151.9375 298.691406 146.6875 296.890625 143.398438 293.472656 C 142.558594 292.734375 141.917969 291.847656 141.476562 290.820312 C 141.035156 289.792969 140.832031 288.71875 140.875 287.601562 L 140.875 285.839844 L 139.160156 287.386719 C 137.976562 288.386719 136.648438 289.128906 135.171875 289.609375 Z M 233 292.230469 C 231.585938 294.519531 227.59375 296.980469 223.765625 297.921875 C 216.851562 299.628906 208.878906 298.472656 201.054688 294.628906 C 197.695312 292.980469 197.628906 292.96875 199.097656 294.210938 C 201.167969 295.960938 208.679688 299.636719 212.132812 300.585938 C 214.378906 301.203125 216.570312 301.359375 222.78125 301.347656 C 230.09375 301.332031 230.828125 301.257812 234.113281 300.160156 C 239.691406 298.296875 243.964844 295.160156 245.839844 291.539062 L 246.484375 290.289062 L 244.65625 290.289062 C 241.945312 290.289062 238.042969 289.054688 236.394531 287.679688 L 234.945312 286.46875 L 234.480469 288.527344 C 234.160156 289.828125 233.664062 291.0625 233 292.226562 Z M 188.398438 291.074219 C 188.660156 291.964844 188.832031 292.867188 188.917969 293.789062 C 189.269531 296.4375 190.292969 298.796875 191.988281 300.859375 C 192.996094 302.066406 193.375 303.757812 192.636719 303.757812 C 192.046875 303.539062 191.519531 303.21875 191.046875 302.800781 L 189.835938 301.847656 L 190.144531 303.128906 C 191.085938 306.984375 195.175781 311.800781 198.421875 312.875 C 201.121094 313.765625 202.402344 312.289062 201.210938 309.667969 C 200.542969 308.199219 199.863281 308.023438 197.746094 308.769531 C 196.757812 309.121094 195.871094 309.402344 195.785156 309.402344 C 195.621094 308.921875 195.570312 308.425781 195.621094 307.921875 C 195.601562 307.398438 195.707031 306.90625 195.945312 306.441406 C 196.183594 305.976562 196.523438 305.601562 196.957031 305.316406 C 199.429688 303.234375 202.714844 304.152344 204.265625 307.355469 C 205.90625 310.742188 205.316406 313.535156 202.566406 315.402344 C 200.5 316.808594 197.722656 316.546875 194.691406 314.664062 C 193.96875 314.160156 193.203125 313.738281 192.386719 313.40625 C 192.34375 313.476562 191.578125 315.195312 190.691406 317.226562 C 188.5625 322.097656 188.480469 322.226562 187.59375 322.226562 C 187.050781 322.226562 186.277344 320.996094 184.878906 317.882812 C 183.804688 315.492188 182.851562 313.457031 182.757812 313.355469 C 182.664062 313.253906 182.242188 313.476562 181.824219 313.847656 C 180.03125 315.285156 177.996094 316.125 175.710938 316.359375 C 170.347656 316.359375 168.277344 309.71875 172.363281 305.628906 C 174.378906 303.617188 176.457031 303.628906 178.496094 305.667969 C 179.925781 307.097656 180.398438 308.65625 179.566406 309.171875 C 178.796875 309.210938 178.066406 309.058594 177.378906 308.707031 C 175.703125 308.039062 175.546875 308.042969 174.742188 308.765625 C 174.101562 309.445312 173.816406 310.25 173.890625 311.179688 C 173.890625 313.296875 174.914062 313.671875 177.527344 312.515625 C 180.84375 311.050781 184.101562 307.113281 185.222656 303.214844 L 185.570312 302 L 184.296875 302.902344 C 182.003906 304.535156 181.414062 303.109375 183.394531 300.703125 C 184.207031 299.800781 184.863281 298.796875 185.355469 297.683594 C 185.847656 296.570312 186.152344 295.410156 186.273438 294.199219 C 186.65625 291.308594 187.644531 289.855469 188.394531 291.074219 Z M 188.398438 291.074219 " fill-opacity="1" fill-rule="nonzero"/></g><g transform="matrix(1, 0, 0, 1, 162, 54)"><g clip-path="url(#4a62b4ac22)"><g fill="#ffffff" fill-opacity="1"><g transform="translate(0.760072, 15.100908)"><g><path d="M 5.734375 -7.953125 C 6.535156 -7.847656 7.257812 -7.601562 7.90625 -7.21875 C 8.550781 -6.84375 9.0625 -6.363281 9.4375 -5.78125 C 9.8125 -5.195312 10 -4.5625 10 -3.875 C 10 -3.113281 9.773438 -2.421875 9.328125 -1.796875 C 8.878906 -1.171875 8.273438 -0.671875 7.515625 -0.296875 C 6.765625 0.0664062 5.929688 0.25 5.015625 0.25 C 4.253906 0.25 3.535156 0.117188 2.859375 -0.140625 C 2.191406 -0.410156 1.625 -0.785156 1.15625 -1.265625 C 1.125 -1.273438 1.113281 -1.296875 1.125 -1.328125 L 1.8125 -2.328125 C 1.820312 -2.347656 1.84375 -2.351562 1.875 -2.34375 C 1.882812 -2.34375 1.894531 -2.328125 1.90625 -2.296875 C 2.164062 -1.554688 2.578125 -0.960938 3.140625 -0.515625 C 3.710938 -0.078125 4.335938 0.140625 5.015625 0.140625 C 5.640625 0.140625 6.203125 -0.0351562 6.703125 -0.390625 C 7.210938 -0.753906 7.617188 -1.238281 7.921875 -1.84375 C 8.234375 -2.457031 8.390625 -3.132812 8.390625 -3.875 C 8.390625 -4.601562 8.234375 -5.273438 7.921875 -5.890625 C 7.617188 -6.503906 7.210938 -6.988281 6.703125 -7.34375 C 6.203125 -7.707031 5.640625 -7.890625 5.015625 -7.890625 C 4.972656 -7.890625 4.953125 -7.90625 4.953125 -7.9375 C 4.953125 -7.976562 4.972656 -8 5.015625 -8 C 5.378906 -8 5.707031 -8.128906 6 -8.390625 C 6.300781 -8.648438 6.539062 -8.992188 6.71875 -9.421875 C 6.90625 -9.859375 7 -10.335938 7 -10.859375 C 7 -11.390625 6.90625 -11.875 6.71875 -12.3125 C 6.539062 -12.75 6.300781 -13.097656 6 -13.359375 C 5.707031 -13.617188 5.378906 -13.75 5.015625 -13.75 C 4.546875 -13.75 4.128906 -13.53125 3.765625 -13.09375 C 3.398438 -12.664062 3.171875 -12.128906 3.078125 -11.484375 C 3.066406 -11.472656 3.054688 -11.460938 3.046875 -11.453125 C 3.015625 -11.453125 2.992188 -11.457031 2.984375 -11.46875 L 2.1875 -12.65625 C 2.175781 -12.675781 2.175781 -12.695312 2.1875 -12.71875 C 2.914062 -13.46875 3.859375 -13.84375 5.015625 -13.84375 C 5.671875 -13.84375 6.269531 -13.707031 6.8125 -13.4375 C 7.363281 -13.175781 7.800781 -12.816406 8.125 -12.359375 C 8.457031 -11.910156 8.625 -11.410156 8.625 -10.859375 C 8.625 -10.378906 8.492188 -9.9375 8.234375 -9.53125 C 7.984375 -9.132812 7.640625 -8.796875 7.203125 -8.515625 C 6.765625 -8.234375 6.273438 -8.046875 5.734375 -7.953125 Z M 5.734375 -7.953125 "/></g></g></g><g fill="#ffffff" fill-opacity="1"><g transform="translate(12.107777, 15.100908)"><g/></g></g><g fill="#ffffff" fill-opacity="1"><g transform="translate(18.990484, 15.100908)"><g><path d="M 5.28125 -8.859375 C 6.207031 -8.859375 7.046875 -8.648438 7.796875 -8.234375 C 8.554688 -7.828125 9.160156 -7.28125 9.609375 -6.59375 C 10.054688 -5.90625 10.28125 -5.144531 10.28125 -4.3125 C 10.28125 -3.46875 10.054688 -2.695312 9.609375 -2 C 9.160156 -1.3125 8.554688 -0.765625 7.796875 -0.359375 C 7.046875 0.046875 6.207031 0.25 5.28125 0.25 C 4.550781 0.25 3.847656 0.109375 3.171875 -0.171875 C 2.503906 -0.460938 1.921875 -0.878906 1.421875 -1.421875 C 1.398438 -1.429688 1.398438 -1.453125 1.421875 -1.484375 L 2.09375 -2.578125 C 2.101562 -2.597656 2.117188 -2.609375 2.140625 -2.609375 C 2.171875 -2.597656 2.1875 -2.578125 2.1875 -2.546875 C 2.445312 -1.734375 2.859375 -1.082031 3.421875 -0.59375 C 3.984375 -0.101562 4.601562 0.140625 5.28125 0.140625 C 5.90625 0.140625 6.46875 -0.0546875 6.96875 -0.453125 C 7.476562 -0.847656 7.882812 -1.382812 8.1875 -2.0625 C 8.5 -2.738281 8.65625 -3.488281 8.65625 -4.3125 C 8.65625 -5.113281 8.5 -5.851562 8.1875 -6.53125 C 7.882812 -7.207031 7.476562 -7.742188 6.96875 -8.140625 C 6.46875 -8.546875 5.90625 -8.75 5.28125 -8.75 C 4.570312 -8.75 3.882812 -8.601562 3.21875 -8.3125 C 2.550781 -8.03125 1.976562 -7.632812 1.5 -7.125 C 1.5 -7.125 1.492188 -7.113281 1.484375 -7.09375 C 1.472656 -7.09375 1.46875 -7.09375 1.46875 -7.09375 L 1.4375 -7.09375 C 1.4375 -7.09375 1.429688 -7.09375 1.421875 -7.09375 C 1.410156 -7.113281 1.40625 -7.128906 1.40625 -7.140625 C 1.40625 -7.140625 1.40625 -7.144531 1.40625 -7.15625 L 2.171875 -13.59375 C 2.171875 -13.601562 2.175781 -13.613281 2.1875 -13.625 C 2.1875 -13.625 2.191406 -13.625 2.203125 -13.625 C 2.210938 -13.625 2.210938 -13.625 2.203125 -13.625 L 9.0625 -13.625 C 9.09375 -13.625 9.113281 -13.617188 9.125 -13.609375 L 9.65625 -12.375 L 10.21875 -11.21875 C 10.21875 -11.195312 10.21875 -11.179688 10.21875 -11.171875 C 10.207031 -11.148438 10.191406 -11.140625 10.171875 -11.140625 C 10.171875 -11.140625 10.164062 -11.140625 10.15625 -11.140625 C 10.132812 -11.140625 10.125 -11.144531 10.125 -11.15625 C 10.039062 -11.300781 9.878906 -11.460938 9.640625 -11.640625 C 9.410156 -11.828125 9.019531 -11.984375 8.46875 -12.109375 C 7.925781 -12.234375 7.171875 -12.296875 6.203125 -12.296875 L 2.109375 -12.296875 L 1.515625 -7.296875 C 2.015625 -7.796875 2.59375 -8.179688 3.25 -8.453125 C 3.90625 -8.722656 4.582031 -8.859375 5.28125 -8.859375 Z M 5.28125 -8.859375 "/></g></g></g><g fill="#ffffff" fill-opacity="1"><g transform="translate(30.689137, 15.100908)"><g/></g></g><g fill="#ffffff" fill-opacity="1"><g transform="translate(37.571844, 15.100908)"><g><path d="M 7.046875 -7.953125 C 7.847656 -7.847656 8.566406 -7.601562 9.203125 -7.21875 C 9.847656 -6.84375 10.359375 -6.363281 10.734375 -5.78125 C 11.117188 -5.195312 11.3125 -4.5625 11.3125 -3.875 C 11.3125 -3.113281 11.085938 -2.421875 10.640625 -1.796875 C 10.191406 -1.171875 9.585938 -0.671875 8.828125 -0.296875 C 8.078125 0.0664062 7.238281 0.25 6.3125 0.25 C 5.40625 0.25 4.570312 0.0664062 3.8125 -0.296875 C 3.050781 -0.671875 2.445312 -1.171875 2 -1.796875 C 1.550781 -2.421875 1.328125 -3.113281 1.328125 -3.875 C 1.328125 -4.5625 1.515625 -5.195312 1.890625 -5.78125 C 2.265625 -6.363281 2.773438 -6.84375 3.421875 -7.21875 C 4.066406 -7.601562 4.789062 -7.847656 5.59375 -7.953125 C 5.050781 -8.046875 4.5625 -8.234375 4.125 -8.515625 C 3.6875 -8.796875 3.335938 -9.132812 3.078125 -9.53125 C 2.828125 -9.9375 2.703125 -10.378906 2.703125 -10.859375 C 2.703125 -11.410156 2.863281 -11.910156 3.1875 -12.359375 C 3.519531 -12.816406 3.957031 -13.175781 4.5 -13.4375 C 5.050781 -13.707031 5.65625 -13.84375 6.3125 -13.84375 C 6.976562 -13.84375 7.582031 -13.707031 8.125 -13.4375 C 8.675781 -13.175781 9.113281 -12.816406 9.4375 -12.359375 C 9.757812 -11.910156 9.921875 -11.410156 9.921875 -10.859375 C 9.921875 -10.378906 9.796875 -9.9375 9.546875 -9.53125 C 9.296875 -9.132812 8.953125 -8.796875 8.515625 -8.515625 C 8.078125 -8.234375 7.585938 -8.046875 7.046875 -7.953125 Z M 6.3125 -8 C 6.675781 -8 7.007812 -8.128906 7.3125 -8.390625 C 7.613281 -8.648438 7.851562 -8.992188 8.03125 -9.421875 C 8.21875 -9.859375 8.3125 -10.335938 8.3125 -10.859375 C 8.3125 -11.390625 8.21875 -11.875 8.03125 -12.3125 C 7.851562 -12.75 7.613281 -13.097656 7.3125 -13.359375 C 7.007812 -13.617188 6.675781 -13.75 6.3125 -13.75 C 5.945312 -13.75 5.613281 -13.617188 5.3125 -13.359375 C 5.019531 -13.097656 4.78125 -12.75 4.59375 -12.3125 C 4.414062 -11.875 4.328125 -11.390625 4.328125 -10.859375 C 4.328125 -10.335938 4.414062 -9.859375 4.59375 -9.421875 C 4.78125 -8.992188 5.019531 -8.648438 5.3125 -8.390625 C 5.613281 -8.128906 5.945312 -8 6.3125 -8 Z M 6.3125 -7.890625 C 5.707031 -7.890625 5.144531 -7.707031 4.625 -7.34375 C 4.113281 -6.988281 3.703125 -6.503906 3.390625 -5.890625 C 3.085938 -5.273438 2.9375 -4.601562 2.9375 -3.875 C 2.9375 -3.132812 3.085938 -2.457031 3.390625 -1.84375 C 3.703125 -1.238281 4.113281 -0.753906 4.625 -0.390625 C 5.144531 -0.0351562 5.707031 0.140625 6.3125 0.140625 C 6.9375 0.140625 7.503906 -0.0351562 8.015625 -0.390625 C 8.523438 -0.753906 8.929688 -1.238281 9.234375 -1.84375 C 9.535156 -2.457031 9.6875 -3.132812 9.6875 -3.875 C 9.6875 -4.601562 9.535156 -5.273438 9.234375 -5.890625 C 8.929688 -6.503906 8.523438 -6.988281 8.015625 -7.34375 C 7.503906 -7.707031 6.9375 -7.890625 6.3125 -7.890625 Z M 6.3125 -7.890625 "/></g></g></g></g></g></svg>